<mxfile host="app.diagrams.net" modified="2024-01-18T14:34:31.707Z" agent="Mozilla/5.0 (Windows NT 10.0; Win64; x64) AppleWebKit/537.36 (KHTML, like Gecko) Chrome/120.0.0.0 Safari/537.36" etag="Pqq0tCYNYIRFm_uW1PXD" version="22.1.21" type="github">
  <diagram name="Page-1" id="90a13364-a465-7bf4-72fc-28e22215d7a0">
    <mxGraphModel dx="1434" dy="772" grid="1" gridSize="10" guides="1" tooltips="1" connect="1" arrows="1" fold="1" page="1" pageScale="1.5" pageWidth="1169" pageHeight="826" background="none" math="0" shadow="0">
      <root>
        <mxCell id="0" style=";html=1;" />
        <mxCell id="1" style=";html=1;" parent="0" />
        <mxCell id="3a17f1ce550125da-1" value="CH Platform" style="whiteSpace=wrap;html=1;shadow=1;fontSize=20;fillColor=#f5f5f5;strokeColor=#666666;strokeWidth=2;dashed=1;" parent="1" vertex="1">
          <mxGeometry x="880" y="260" width="150" height="60" as="geometry" />
        </mxCell>
        <mxCell id="PcffWIVFiGuBhN8pWp4p-13" value="" style="rounded=0;orthogonalLoop=1;jettySize=auto;html=1;" edge="1" parent="1" source="3a17f1ce550125da-2" target="PcffWIVFiGuBhN8pWp4p-10">
          <mxGeometry relative="1" as="geometry" />
        </mxCell>
        <mxCell id="PcffWIVFiGuBhN8pWp4p-14" value="" style="rounded=0;orthogonalLoop=1;jettySize=auto;html=1;entryX=0;entryY=0.5;entryDx=0;entryDy=0;" edge="1" parent="1" source="3a17f1ce550125da-2" target="PcffWIVFiGuBhN8pWp4p-8">
          <mxGeometry relative="1" as="geometry" />
        </mxCell>
        <mxCell id="PcffWIVFiGuBhN8pWp4p-15" value="" style="rounded=0;orthogonalLoop=1;jettySize=auto;html=1;entryX=0;entryY=0.5;entryDx=0;entryDy=0;" edge="1" parent="1" source="3a17f1ce550125da-2" target="PcffWIVFiGuBhN8pWp4p-9">
          <mxGeometry relative="1" as="geometry" />
        </mxCell>
        <mxCell id="PcffWIVFiGuBhN8pWp4p-16" value="" style="rounded=0;orthogonalLoop=1;jettySize=auto;html=1;entryX=0;entryY=0.5;entryDx=0;entryDy=0;" edge="1" parent="1" source="3a17f1ce550125da-2" target="PcffWIVFiGuBhN8pWp4p-12">
          <mxGeometry relative="1" as="geometry" />
        </mxCell>
        <mxCell id="3a17f1ce550125da-2" value="Front end&lt;br&gt;[WebApp/API]" style="whiteSpace=wrap;html=1;shadow=1;fontSize=18;fillColor=#f5f5f5;strokeColor=#666666;" parent="1" vertex="1">
          <mxGeometry x="787" y="530" width="170" height="110" as="geometry" />
        </mxCell>
        <mxCell id="PcffWIVFiGuBhN8pWp4p-6" style="edgeStyle=orthogonalEdgeStyle;rounded=0;orthogonalLoop=1;jettySize=auto;html=1;entryX=0;entryY=0.5;entryDx=0;entryDy=0;" edge="1" parent="1" source="3a17f1ce550125da-9" target="3a17f1ce550125da-2">
          <mxGeometry relative="1" as="geometry" />
        </mxCell>
        <mxCell id="3a17f1ce550125da-9" value="User" style="whiteSpace=wrap;html=1;shadow=1;fontSize=18;fillColor=#f5f5f5;strokeColor=#666666;" parent="1" vertex="1">
          <mxGeometry x="597" y="555" width="120" height="60" as="geometry" />
        </mxCell>
        <mxCell id="PcffWIVFiGuBhN8pWp4p-31" style="edgeStyle=orthogonalEdgeStyle;rounded=0;orthogonalLoop=1;jettySize=auto;html=1;entryX=0;entryY=0.5;entryDx=0;entryDy=0;exitX=0.5;exitY=1;exitDx=0;exitDy=0;startArrow=classic;startFill=1;strokeWidth=3;dashed=1;dashPattern=1 2;strokeColor=#26FF2D;" edge="1" parent="1" source="PcffWIVFiGuBhN8pWp4p-7" target="PcffWIVFiGuBhN8pWp4p-27">
          <mxGeometry relative="1" as="geometry" />
        </mxCell>
        <mxCell id="PcffWIVFiGuBhN8pWp4p-7" value="Middleware/Backend" style="swimlane;whiteSpace=wrap;html=1;" vertex="1" parent="1">
          <mxGeometry x="1030" y="440" width="200" height="310" as="geometry" />
        </mxCell>
        <mxCell id="PcffWIVFiGuBhN8pWp4p-8" value="Software/Patch Management" style="rounded=1;whiteSpace=wrap;html=1;" vertex="1" parent="PcffWIVFiGuBhN8pWp4p-7">
          <mxGeometry x="40" y="37" width="120" height="50" as="geometry" />
        </mxCell>
        <mxCell id="PcffWIVFiGuBhN8pWp4p-9" value="AVD Controls" style="rounded=1;whiteSpace=wrap;html=1;" vertex="1" parent="PcffWIVFiGuBhN8pWp4p-7">
          <mxGeometry x="40" y="100" width="120" height="50" as="geometry" />
        </mxCell>
        <mxCell id="PcffWIVFiGuBhN8pWp4p-12" value="GPO/Firewall" style="rounded=1;whiteSpace=wrap;html=1;" vertex="1" parent="PcffWIVFiGuBhN8pWp4p-7">
          <mxGeometry x="40" y="230" width="120" height="50" as="geometry" />
        </mxCell>
        <mxCell id="PcffWIVFiGuBhN8pWp4p-10" value="Monitoring" style="rounded=1;whiteSpace=wrap;html=1;" vertex="1" parent="PcffWIVFiGuBhN8pWp4p-7">
          <mxGeometry x="40" y="166" width="120" height="50" as="geometry" />
        </mxCell>
        <mxCell id="PcffWIVFiGuBhN8pWp4p-17" value="Database" style="shape=cylinder3;whiteSpace=wrap;html=1;boundedLbl=1;backgroundOutline=1;size=15;" vertex="1" parent="1">
          <mxGeometry x="1330" y="360" width="60" height="80" as="geometry" />
        </mxCell>
        <mxCell id="PcffWIVFiGuBhN8pWp4p-18" style="rounded=0;orthogonalLoop=1;jettySize=auto;html=1;entryX=0;entryY=0.5;entryDx=0;entryDy=0;entryPerimeter=0;edgeStyle=entityRelationEdgeStyle;startArrow=classicThin;startFill=1;endArrow=classicThin;endFill=1;dashed=1;dashPattern=8 8;strokeColor=#3399FF;exitX=1;exitY=0.25;exitDx=0;exitDy=0;" edge="1" parent="1" source="PcffWIVFiGuBhN8pWp4p-12" target="PcffWIVFiGuBhN8pWp4p-17">
          <mxGeometry relative="1" as="geometry" />
        </mxCell>
        <mxCell id="PcffWIVFiGuBhN8pWp4p-19" style="rounded=0;orthogonalLoop=1;jettySize=auto;html=1;entryX=0;entryY=0.5;entryDx=0;entryDy=0;entryPerimeter=0;edgeStyle=entityRelationEdgeStyle;startArrow=classicThin;startFill=1;endArrow=classicThin;endFill=1;dashed=1;dashPattern=8 8;strokeColor=#3399FF;exitX=1;exitY=0.25;exitDx=0;exitDy=0;" edge="1" parent="1" source="PcffWIVFiGuBhN8pWp4p-10" target="PcffWIVFiGuBhN8pWp4p-17">
          <mxGeometry relative="1" as="geometry" />
        </mxCell>
        <mxCell id="PcffWIVFiGuBhN8pWp4p-20" style="rounded=0;orthogonalLoop=1;jettySize=auto;html=1;entryX=0;entryY=0.5;entryDx=0;entryDy=0;entryPerimeter=0;edgeStyle=entityRelationEdgeStyle;startArrow=classicThin;startFill=1;endArrow=classicThin;endFill=1;dashed=1;dashPattern=8 8;strokeColor=#3399FF;exitX=1;exitY=0.25;exitDx=0;exitDy=0;" edge="1" parent="1" source="PcffWIVFiGuBhN8pWp4p-9" target="PcffWIVFiGuBhN8pWp4p-17">
          <mxGeometry relative="1" as="geometry" />
        </mxCell>
        <mxCell id="PcffWIVFiGuBhN8pWp4p-21" style="rounded=0;orthogonalLoop=1;jettySize=auto;html=1;entryX=0;entryY=0.5;entryDx=0;entryDy=0;entryPerimeter=0;edgeStyle=entityRelationEdgeStyle;startArrow=classicThin;startFill=1;endArrow=classicThin;endFill=1;dashed=1;dashPattern=8 8;strokeColor=#3399FF;exitX=1;exitY=0.25;exitDx=0;exitDy=0;" edge="1" parent="1" source="PcffWIVFiGuBhN8pWp4p-8" target="PcffWIVFiGuBhN8pWp4p-17">
          <mxGeometry relative="1" as="geometry">
            <Array as="points">
              <mxPoint x="1210" y="480" />
            </Array>
          </mxGeometry>
        </mxCell>
        <mxCell id="PcffWIVFiGuBhN8pWp4p-22" value="Output&lt;br&gt;[Emails/Reports&lt;br&gt;/Insights]" style="whiteSpace=wrap;html=1;shadow=1;fontSize=18;fillColor=#f5f5f5;strokeColor=#666666;" vertex="1" parent="1">
          <mxGeometry x="1430" y="530" width="170" height="110" as="geometry" />
        </mxCell>
        <mxCell id="PcffWIVFiGuBhN8pWp4p-23" style="rounded=0;orthogonalLoop=1;jettySize=auto;html=1;entryX=0;entryY=0.25;entryDx=0;entryDy=0;exitX=1;exitY=0.5;exitDx=0;exitDy=0;" edge="1" parent="1" source="PcffWIVFiGuBhN8pWp4p-8" target="PcffWIVFiGuBhN8pWp4p-22">
          <mxGeometry relative="1" as="geometry" />
        </mxCell>
        <mxCell id="PcffWIVFiGuBhN8pWp4p-24" style="rounded=0;orthogonalLoop=1;jettySize=auto;html=1;entryX=0;entryY=0.5;entryDx=0;entryDy=0;" edge="1" parent="1" source="PcffWIVFiGuBhN8pWp4p-9" target="PcffWIVFiGuBhN8pWp4p-22">
          <mxGeometry relative="1" as="geometry" />
        </mxCell>
        <mxCell id="PcffWIVFiGuBhN8pWp4p-25" style="rounded=0;orthogonalLoop=1;jettySize=auto;html=1;entryX=0;entryY=0.75;entryDx=0;entryDy=0;exitX=1;exitY=0.5;exitDx=0;exitDy=0;" edge="1" parent="1" source="PcffWIVFiGuBhN8pWp4p-10" target="PcffWIVFiGuBhN8pWp4p-22">
          <mxGeometry relative="1" as="geometry" />
        </mxCell>
        <mxCell id="PcffWIVFiGuBhN8pWp4p-26" style="rounded=0;orthogonalLoop=1;jettySize=auto;html=1;entryX=-0.006;entryY=0.909;entryDx=0;entryDy=0;entryPerimeter=0;exitX=1;exitY=0.5;exitDx=0;exitDy=0;" edge="1" parent="1" source="PcffWIVFiGuBhN8pWp4p-12" target="PcffWIVFiGuBhN8pWp4p-22">
          <mxGeometry relative="1" as="geometry" />
        </mxCell>
        <mxCell id="PcffWIVFiGuBhN8pWp4p-27" value="On-Prem" style="swimlane;whiteSpace=wrap;html=1;" vertex="1" parent="1">
          <mxGeometry x="1260" y="755" width="150" height="260" as="geometry" />
        </mxCell>
        <mxCell id="PcffWIVFiGuBhN8pWp4p-29" value="Active Directory" style="rounded=1;whiteSpace=wrap;html=1;fontStyle=1" vertex="1" parent="PcffWIVFiGuBhN8pWp4p-27">
          <mxGeometry x="15" y="105" width="120" height="60" as="geometry" />
        </mxCell>
        <mxCell id="PcffWIVFiGuBhN8pWp4p-28" value="JDSRS/SCCM" style="rounded=1;whiteSpace=wrap;html=1;" vertex="1" parent="1">
          <mxGeometry x="1274" y="789" width="120" height="60" as="geometry" />
        </mxCell>
        <mxCell id="PcffWIVFiGuBhN8pWp4p-30" value="SNOW" style="rounded=1;whiteSpace=wrap;html=1;fontStyle=1" vertex="1" parent="1">
          <mxGeometry x="1275" y="930" width="120" height="60" as="geometry" />
        </mxCell>
        <mxCell id="PcffWIVFiGuBhN8pWp4p-32" value="Intune&lt;br&gt;AVD" style="ellipse;shape=cloud;whiteSpace=wrap;html=1;" vertex="1" parent="1">
          <mxGeometry x="957" y="890" width="120" height="80" as="geometry" />
        </mxCell>
        <mxCell id="PcffWIVFiGuBhN8pWp4p-33" style="edgeStyle=orthogonalEdgeStyle;rounded=0;orthogonalLoop=1;jettySize=auto;html=1;exitX=0.5;exitY=1;exitDx=0;exitDy=0;startArrow=classic;startFill=1;strokeWidth=3;dashed=1;dashPattern=1 2;strokeColor=#26FF2D;" edge="1" parent="1" source="PcffWIVFiGuBhN8pWp4p-7" target="PcffWIVFiGuBhN8pWp4p-32">
          <mxGeometry relative="1" as="geometry">
            <mxPoint x="1140" y="760" as="sourcePoint" />
            <mxPoint x="1270" y="895" as="targetPoint" />
          </mxGeometry>
        </mxCell>
      </root>
    </mxGraphModel>
  </diagram>
</mxfile>
